{"title":"Ajlawju (1999) [DVDRip][XviD-torentup] [PL]","uid":12646767,"size":732017696,"categoryP":"video","categoryS":"movies","magnet":"?xt=urn:btih:f0b9a0d87a7a08d98e9ef69ac981c6ad514cce42&amp;dn=Ajlawju+%281999%29+%5BDVDRip%5D%5BXviD-torentup%5D+%5BPL%5D&amp;tr=udp%3A%2F%2Ftracker.leechers-paradise.org%3A6969&amp;tr=udp%3A%2F%2Fzer0day.ch%3A1337&amp;tr=udp%3A%2F%2Fopen.demonii.com%3A1337&amp;tr=udp%3A%2F%2Ftracker.coppersurfer.tk%3A6969&amp;tr=udp%3A%2F%2Fexodus.desync.com%3A6969","seeders":0,"leechers":1,"uploader":"torentup","files":5,"time":1446069398,"description":"=====================\r\nINFO\r\n================\r\n\r\ntytuł polski .... Ajlawju\r\ntytuł orginalny .... Ajlawju\r\nprodukcja .... Polska\r\ngatunek .... Dramat, Komedia, Romans\r\nreżyseria .... Marek Koterski\r\nscenariusz .... Marek Koterski\r\nmuzyka .... Jerzy Satanowski\r\nzdjęcia .... Bogdan Stachurski\r\nna podstawie ....\r\ndystrybucja .... Vision Film Distribution\r\npremiera .... 18 czerwca 1999 (Polska) 18 czerwca 1999 (świat)\r\nod lat .... 14\r\nczas trwania .... 1:27:19 min.\r\n\r\nFilmweb: 6.1/10 ( 21,307 głosów) ( 3,494 chce zobaczyć) \nhttp://www.filmweb.pl/film/Ajlawju-1999-567\r\n\r\nIMDb: 5.4/10 ( 334 głosów) ( 1 chce zobaczyć) \nhttp://www.imdb.com/title/tt0238825/\r\n\r\nYouTube - Trailer\r\n\r\n\r\n=====================\r\nOPIS\r\n====================\r\n\r\nAdam przeżył w życiu niejedno, ale wciąż czeka na wielką miłość. Marzy mu się namiętna kochanka, która spełni jego wszystkie pragnienia. Jego była żona zawsze uważała, że łóżko służy tylko do spania. Adam ma nadzieję,że jest gdzieś kobieta, która odmieni jego życie. I nie myli się: Oto na horyzoncie zjawia się piękna Małgorzata - tygrysica w skórze skromnej nauczycielki, która otwiera przed nim świat prawdziwej namiętności. Zaślepieni miłością zapominają o całym świecie. Ale ich uczucie czekają też trudne chwile - charakterami pasują do siebie jak pięść do nosa, a polskie realia wystawiają ich miłość na wiele prób. Czy więc romans może przetrwać? Gdy kochankami są Figura i Pazura - na pewno!\r\n\r\n=====================\r\nOBSADA\r\n====================\r\n\r\nCezary Pazura .......... Adaś Miauczyński\r\nKatarzyna Figura .......... Gosia\r\nZbigniew Buczkowski .......... WF-men\r\nEugenia Herman .......... matka Adama\r\nMichał Koterski .......... Sylwuś, syn Adama\r\nMaciej Kozłowski .......... partner Gosi\r\nCezary Żak .......... Rysiek, kolega Gosi\r\nBarry Abdullaje .......... Gary\r\nAnna Milewska .......... matka Gosi\r\nAnna Powierza .......... córka Gosi\r\nEugeniusz Priwieziencew .......... taksówkarz\r\nNorbert Rakowski .......... sanitariusz w izbie wytrzeźwień\r\nJan Jurewicz .......... WF-men\r\nCarlos Fereira ..........\r\nKatarzyna Gajdarska .......... znajoma Adama przy barze\r\nEwa Grabarczyk .......... panna młoda\r\nElżbieta Jarosik .......... kobieta jedząca bułkę w pociągu\r\nTadeusz Pokrywka ..........\r\nBarbara Poznański ..........\r\nZdzisław Rychter .......... sanitariusz w izbie wytrzeźwień\r\nTom Sendagi ..........\r\nWitold Skaruch .......... ksiądz\r\nMałgorzata Werner .......... barmanka\r\n\r\n=====================\r\nDANE TECHNICZNE\r\n=====================\r\nFormat                         : AVI\r\nFormat/Info                    : Audio Video Interleave\r\nFile size                      : 698 MiB\r\nDuration                       : 1h 27mn\r\nOverall bit rate               : 1 118 Kbps\r\nWriting library                : VirtualDub build 10805/release\r\n\r\nVideo\r\nID                             : 0\r\nFormat                         : MPEG-4 Visual\r\nCodec ID                       : DIV3\r\nCodec ID/Hint                  : DivX 3 Low\r\nDuration                       : 1h 27mn\r\nBit rate                       : 980 Kbps\r\nWidth                          : 640 pixels\r\nHeight                         : 480 pixels\r\nDisplay aspect ratio           : 4:3\r\nFrame rate                     : 25.000 fps\r\nColor space                    : YUV\r\nChroma subsampling             : 4:2:0\r\nBit depth                      : 8 bits\r\nCompression mode               : Lossy\r\nBits/(Pixel*Frame)             : 0.128\r\nStream size                    : 612 MiB (88%)\r\n\r\nAudio\r\nID                             : 1\r\nFormat                         : MPEG Audio\r\nFormat version                 : Version 1\r\nFormat profile                 : Layer 3\r\nMode                           : Joint stereo\r\nMode extension                 : MS Stereo\r\nCodec ID                       : 55\r\nCodec ID/Hint                  : MP3\r\nDuration                       : 1h 27mn\r\nBit rate mode                  : Constant\r\nBit rate                       : 128 Kbps\r\nChannel(s)                     : 2 channels\r\nSampling rate                  : 48.0 KHz\r\nCompression mode               : Lossy\r\nStream size                    : 79.9 MiB (11%)\r\nAlignment                      : Split accross interleaves\r\nInterleave, duration           : 40 ms (1.00 video frame)\r\nInterleave, preload duration   : 451 ms","torrent":{"xt":"urn:btih:f0b9a0d87a7a08d98e9ef69ac981c6ad514cce42","amp;dn":"Ajlawju+%281999%29+%5BDVDRip%5D%5BXviD-torentup%5D+%5BPL%5D","amp;tr":["udp%3A%2F%2Ftracker.leechers-paradise.org%3A6969","udp%3A%2F%2Fzer0day.ch%3A1337","udp%3A%2F%2Fopen.demonii.com%3A1337","udp%3A%2F%2Ftracker.coppersurfer.tk%3A6969","udp%3A%2F%2Fexodus.desync.com%3A6969"],"infoHash":"f0b9a0d87a7a08d98e9ef69ac981c6ad514cce42","infoHashBuffer":{"type":"Buffer","data":[240,185,160,216,122,122,8,217,142,158,246,154,201,129,198,173,81,76,206,66]},"announce":[],"urlList":[]}}